<?xml version="1.0" encoding="UTF-8"?>
<svg id="_Слой_1" data-name="Слой 1" xmlns="http://www.w3.org/2000/svg" viewBox="0 0 1000.18 1000.18">
  <defs>
    <style>
      .cls-1 {
        fill: #010101;
      }
    </style>
  </defs>
  <path class="cls-1" d="M420.39,417.26c0-37.51-26.57-37.51-26.57-37.51h-107.83v82.83h100.02c20.32-1.56,34.38-7.81,34.38-45.32Z"/>
  <path class="cls-1" d="M668.87,461.02c-56.26,0-64.07,56.26-64.07,56.26h120.33s1.56-56.26-56.26-56.26Z"/>
  <path class="cls-1" d="M395.38,517.28h-107.83v98.46h101.58c15.63,0,43.76-4.69,43.76-48.45,1.56-50.01-37.51-50.01-37.51-50.01Z"/>
  <path class="cls-1" d="M500.09,0C225.04,0,0,225.04,0,500.09s225.04,500.09,500.09,500.09,500.09-225.04,500.09-500.09S775.14,0,500.09,0Zm89.08,334.43h151.59v45.32h-151.59v-45.32Zm-78.14,237.54c0,112.52-117.21,109.39-117.21,109.39H203.16V312.56h192.22c57.82,0,104.71,32.82,104.71,98.46s-56.26,70.33-56.26,70.33c73.45,0,67.2,90.64,67.2,90.64Zm284.43-6.25h-190.66c0,68.76,64.07,64.07,64.07,64.07,60.95,0,59.39-39.07,59.39-39.07h64.07c0,104.71-126.59,98.46-126.59,98.46-151.59,0-140.65-140.65-140.65-140.65,0,0,0-142.21,140.65-142.21,151.59,0,129.71,159.4,129.71,159.4Z"/>
</svg>