<svg xmlns="http://www.w3.org/2000/svg" xmlns:xlink="http://www.w3.org/1999/xlink" version="1.1" width="512" height="512" x="0" y="0" viewBox="0 0 512 512" style="enable-background:new 0 0 512 512" xml:space="preserve"><g><path fill-rule="evenodd" d="M256 16c132.548 0 240 107.451 240 240S388.548 496 256 496 16 388.548 16 256 123.452 16 256 16zm-50.72 224.082-84.674-66.218a22.395 22.395 0 0 0-1.074 6.858V326.67zm86.992 8.607-19.496 15.116c-5.511 4.271-11.996 6.409-18.484 6.409-6.487 0-12.967-2.138-18.478-6.409l-19.495-15.116-93.442 94.355c3.96 6.409 11.055 10.693 19.116 10.693h228.012c7.183 0 13.594-3.401 17.712-8.672zm98.413-76.722-87.369 68.126 89.152 90.019V180.723a22.2 22.2 0 0 0-1.783-8.756zm-248.691-13.704a22.335 22.335 0 0 0-13.245 4.339c38.5 30.109 76.938 60.262 115.561 90.205 2.981 2.312 6.482 3.469 9.983 3.469 3.502 0 7.009-1.156 9.989-3.469 39.158-30.36 78.203-60.865 117.273-91.331a22.251 22.251 0 0 0-11.549-3.213z" clip-rule="evenodd" fill="#000000" opacity="1" data-original="#000000"/></g></svg>